<?xml version="1.0" standalone="no"?><!DOCTYPE svg PUBLIC "-//W3C//DTD SVG 1.1//EN" "http://www.w3.org/Graphics/SVG/1.1/DTD/svg11.dtd"><svg t="1618064295151" class="icon" viewBox="0 0 1024 1024" version="1.1" xmlns="http://www.w3.org/2000/svg" p-id="7061" xmlns:xlink="http://www.w3.org/1999/xlink" width="200" height="200"><defs><style type="text/css"></style></defs><path d="M416 836h192V680a8 8 0 0 1 8-8h48a8 8 0 0 1 8 8v156h149.184L776.064 576H247.968l-45.12 260h149.184V680a8 8 0 0 1 8-8h48a8 8 0 0 1 8 8v156z m-212-336h616v-104h-272v-208h-72v208h-272v104zM853.184 576l51.808 298.528a32 32 0 0 1-31.52 37.472H150.496a32 32 0 0 1-31.488-37.664l-0.032 0.192L170.784 576h-10.816a32 32 0 0 1-32-32v-192a32 32 0 0 1 32-32h240V144a32 32 0 0 1 32-32h160a32 32 0 0 1 32 32V320h240a32 32 0 0 1 32 32v192a32 32 0 0 1-32 32h-10.816z" p-id="7062"></path></svg>