<?xml version="1.0" standalone="no"?><!DOCTYPE svg PUBLIC "-//W3C//DTD SVG 1.1//EN" "http://www.w3.org/Graphics/SVG/1.1/DTD/svg11.dtd"><svg t="1618064216062" class="icon" viewBox="0 0 1024 1024" version="1.1" xmlns="http://www.w3.org/2000/svg" p-id="4485" xmlns:xlink="http://www.w3.org/1999/xlink" width="200" height="200"><defs><style type="text/css"></style></defs><path d="M934.229333 853.333333H373.888c-12.586667 0-25.173333-4.821333-32.981333-14.506666l-284.117334-292.992c-18.816-19.328-18.816-49.92 0-67.626667L340.906667 185.173333c7.850667-9.685333 20.394667-14.506667 32.981333-14.506666h560.341333C960.938667 170.666667 981.333333 191.573333 981.333333 218.965333v586.069334c0 27.349333-20.394667 48.298667-47.104 48.298666zM392.704 756.736h494.464V267.264H392.704L155.690667 512l237.013333 244.736z" p-id="4486"></path><path d="M738.048 677.845333c-12.586667 0-23.552-4.821333-32.981333-14.506666l-227.584-233.472c-18.858667-19.285333-18.858667-49.92 0-67.584 18.816-19.328 48.64-19.328 65.92 0l227.584 233.429333c18.858667 19.328 18.858667 49.92 0 67.626667-9.386667 9.685333-21.973333 14.506667-32.938667 14.506666z" p-id="4487"></path><path d="M510.421333 677.845333c-12.544 0-23.552-4.821333-32.938666-14.506666-18.858667-19.328-18.858667-49.92 0-67.626667l227.584-233.429333c18.858667-19.328 48.64-19.328 65.92 0 17.28 19.285333 18.858667 49.92 0 67.626666l-227.584 233.429334c-9.386667 9.685333-20.394667 14.506667-32.981334 14.506666z" p-id="4488"></path></svg>