<?xml version="1.0" standalone="no"?><!DOCTYPE svg PUBLIC "-//W3C//DTD SVG 1.1//EN" "http://www.w3.org/Graphics/SVG/1.1/DTD/svg11.dtd"><svg t="1618721873329" class="icon" viewBox="0 0 1024 1024" version="1.1" xmlns="http://www.w3.org/2000/svg" p-id="2616" xmlns:xlink="http://www.w3.org/1999/xlink" width="200" height="200"><defs><style type="text/css"></style></defs><path d="M924.328 961.625H99.672a37.484 37.484 0 0 1 0-74.969h824.656a37.484 37.484 0 0 1 0 74.97zM196.756 828.93a74.969 74.969 0 0 1-71.97-54.727 71.595 71.595 0 0 1 0-41.607l49.855-157.06a37.484 37.484 0 0 1 8.996-14.619L352.69 384.366 618.081 118.6a112.453 112.453 0 0 1 158.934 0l53.227 53.228a112.453 112.453 0 0 1 0 158.934L564.853 595.778l-169.43 176.176a37.484 37.484 0 0 1-17.242 10.121l-161.558 43.857a70.845 70.845 0 0 1-19.867 2.998z m45.731-222.657l-45.73 147.689 151.811-41.608L512 543.299l149.938-151.811-104.582-104.582L407.42 436.844z m125.948 139.442zM610.584 232.18l106.08 106.08 60.35-60.349a37.484 37.484 0 0 0 0-53.228l-52.852-52.853a37.484 37.484 0 0 0-53.228 0z" p-id="2617"></path></svg>